
        <svg xmlns="http://www.w3.org/2000/svg" xmlns:xlink="http://www.w3.org/1999/xlink" version= "1.1" width="1080px" height="1080px" viewBox="-180 184 1080 1080"><g id="layer1"><g style="fill:rgb(255,255,255); fill-opacity:1.0; stroke-linejoin: miter">
             <path d="M992.7025,390.17825L96.265015,390.17847L96.264984,600.5587L992.7024,600.5577Q1007.26807,600.516,1020.6659,596.8002Q1061.8634,584.6505,1083.5306,548.45917Q1103.6324,504.50635,1096.9319,481.09436Q1090.1047,437.95816,1056.9808,412.09583Q1028.4707,393.87338,1020.66614,393.93573Q1007.2678,390.22006,992.7025,390.17825 Z"/></g><g style="fill:rgb(0,0,0); fill-opacity:1.0; stroke-linejoin: miter">
             <path d="M-253.78868,390.1786L-316.42215,390.1796C-374.51678,390.1786,-421.6118,437.27356,-421.6118,495.3683C-421.61176,553.463,-374.51672,600.558,-316.4221,600.558L-253.78868,600.55896L-253.78868,600.558L-253.78868,390.1786 Z"/></g><g style="fill:rgb(255,255,255); fill-opacity:1.0; stroke-linejoin: miter">
             <path d="M-320.51254,668.32214L-320.51254,668.32214L994.57324,668.3216C1052.6678,668.3216,1099.763,715.4167,1099.763,773.5112C1099.763,831.60596,1052.6678,878.70105,994.57324,878.70105L994.57324,878.70105L-320.51245,878.70154C-378.60712,878.70154,-425.70215,831.60645,-425.70215,773.51184C-425.70218,715.4171,-378.6072,668.32214,-320.51254,668.32214 Z"/></g><g style="fill:rgb(0,0,0); fill-opacity:1.0; stroke-linejoin: miter">
             <path d="M994.96313,942.3751L941.81824,942.3761L941.81824,942.3751L941.8183,1152.7545L941.8183,1152.7555L994.96313,1152.7545C1053.0579,1152.7545,1100.1528,1105.6595,1100.1528,1047.5648C1100.1528,989.4701,1053.0579,942.3751,994.96313,942.3751 Z"/></g><g style="fill:rgb(255,255,255); fill-opacity:1.0; stroke-linejoin: miter">
             <path d="M669.7863,942.3752L-250.97668,942.3753Q-295.6756,943.5033,-325.357,973.1846Q-355.0383,1002.866,-356.16632,1047.565Q-355.0383,1092.264,-325.357,1121.9453Q-295.67554,1151.6266,-250.97665,1152.7548L669.7863,1152.7545L669.7863,942.3752 Z"/></g></g>
        </svg>